<?xml version="1.0" encoding="utf-8"?>
<!-- Generator: Adobe Illustrator 16.0.0, SVG Export Plug-In . SVG Version: 6.00 Build 0)  -->
<!DOCTYPE svg PUBLIC "-//W3C//DTD SVG 1.1//EN" "http://www.w3.org/Graphics/SVG/1.1/DTD/svg11.dtd">
<svg version="1.1" xmlns="http://www.w3.org/2000/svg" xmlns:xlink="http://www.w3.org/1999/xlink" x="0px" y="0px"
	 width="471.761px" height="436.245px" viewBox="0 0 471.761 436.245" enable-background="new 0 0 471.761 436.245"
	 xml:space="preserve">
<g id="Layer_1">
</g>
<g id="Layer_2">
	<path fill="#ABABAB" d="M24.446,20.686v397.777h302.222V20.686H24.446z M312.594,402.908H40.001V36.241h272.593V402.908z"/>
	<g>
		<g>
			<g>
				<rect x="62.224" y="134.38" fill="#ABABAB" width="102.963" height="8.889"/>
				<rect x="62.224" y="147.931" fill="#ABABAB" width="102.963" height="8.888"/>
				<rect x="62.224" y="161.482" fill="#ABABAB" width="102.963" height="8.889"/>
				<rect x="62.224" y="175.034" fill="#ABABAB" width="102.963" height="8.888"/>
				<rect x="62.224" y="188.585" fill="#ABABAB" width="102.963" height="8.889"/>
				<rect x="62.224" y="202.136" fill="#ABABAB" width="102.963" height="8.889"/>
				<rect x="62.224" y="215.687" fill="#ABABAB" width="102.963" height="8.889"/>
				<rect x="62.224" y="229.238" fill="#ABABAB" width="102.963" height="8.889"/>
				<rect x="62.224" y="242.79" fill="#ABABAB" width="102.963" height="8.889"/>
				<rect x="62.224" y="256.341" fill="#ABABAB" width="102.963" height="8.889"/>
				<rect x="62.224" y="269.892" fill="#ABABAB" width="102.963" height="8.889"/>
				<rect x="62.224" y="283.443" fill="#ABABAB" width="102.963" height="8.889"/>
				<rect x="62.224" y="296.995" fill="#ABABAB" width="102.963" height="8.889"/>
				<rect x="62.224" y="310.545" fill="#ABABAB" width="102.963" height="8.889"/>
				<rect x="62.224" y="324.097" fill="#ABABAB" width="102.963" height="8.889"/>
				<rect x="62.224" y="337.648" fill="#ABABAB" width="102.963" height="8.888"/>
				<rect x="62.224" y="351.199" fill="#ABABAB" width="102.963" height="8.889"/>
				<rect x="62.224" y="364.75" fill="#ABABAB" width="102.963" height="8.889"/>
			</g>
			<rect x="185.927" y="229.238" fill="#ABABAB" width="102.963" height="8.889"/>
			<rect x="185.927" y="134.38" fill="#ABABAB" width="102.963" height="85.751"/>
			<rect x="185.927" y="242.79" fill="#ABABAB" width="102.963" height="8.889"/>
			<rect x="185.927" y="256.341" fill="#ABABAB" width="102.963" height="8.889"/>
			<rect x="185.927" y="269.892" fill="#ABABAB" width="102.963" height="8.889"/>
			<rect x="185.927" y="283.443" fill="#ABABAB" width="102.963" height="8.889"/>
			<rect x="185.927" y="296.995" fill="#ABABAB" width="102.963" height="8.889"/>
			<rect x="185.927" y="310.545" fill="#ABABAB" width="102.963" height="8.889"/>
			<rect x="185.927" y="324.097" fill="#ABABAB" width="102.963" height="8.889"/>
			<rect x="185.927" y="337.648" fill="#ABABAB" width="102.963" height="8.888"/>
			<rect x="185.927" y="351.199" fill="#ABABAB" width="102.963" height="8.889"/>
			<rect x="185.927" y="364.75" fill="#ABABAB" width="102.963" height="8.889"/>
		</g>
		<g>
			<path fill="#ABABAB" d="M68.788,104.12h-4.511V70.283h8.213c4.106,0,8.786,1.562,8.786,10.151v0.868
				c0,5.423-1.885,8.069-4.275,9.284l4.275,13.535h-4.881l-3.77-12.624h-3.837V104.12z M72.659,86.42
				c1.75,0,4.039-0.824,4.039-5.292v-0.477c0-4.468-2.289-5.292-4.039-5.292h-3.871V86.42H72.659z"/>
			<path fill="#ABABAB" d="M100.466,70.283v5.076H89.358v8.979h9.425v5.032h-9.425v9.674h11.108v5.076H84.847V70.283H100.466z"/>
			<path fill="#ABABAB" d="M103.296,79.957v-0.434c0-5.987,3.299-9.804,8.988-9.804c6.227,0,8.954,3.774,8.954,11.409v0.998h-4.511
				c0-5.076-1.279-7.331-4.409-7.331h-0.303c-2.491,0-4.106,1.778-4.106,4.425v0.26c0,2.776,0.976,4.338,5.116,5.075
				c5.723,0.998,8.449,3.644,8.449,9.587v0.477c0,6.333-3.332,10.064-9.189,10.064c-6.025,0-9.223-3.774-9.223-11.539V92.71h4.51
				c0,4.815,1.717,6.897,4.544,6.897h0.303c2.828,0,4.443-1.952,4.443-4.772v-0.26c0-2.95-1.279-4.511-5.285-5.206
				C105.855,88.373,103.296,85.553,103.296,79.957z"/>
			<path fill="#ABABAB" d="M140.395,70.283v5.076h-11.108v8.979h9.425v5.032h-9.425v9.674h11.108v5.076h-15.619V70.283H140.395z"/>
			<path fill="#ABABAB" d="M155.478,70.109l6.9,34.01h-4.847l-1.448-7.722h-7.405l-1.447,7.722h-4.881l6.9-34.01H155.478z
				 M149.621,91.322h5.487l-2.727-14.576L149.621,91.322z"/>
			<path fill="#ABABAB" d="M169.552,104.12h-4.511V70.283h8.213c4.106,0,8.786,1.562,8.786,10.151v0.868
				c0,5.423-1.885,8.069-4.275,9.284l4.275,13.535h-4.881l-3.77-12.624h-3.837V104.12z M173.423,86.42
				c1.75,0,4.039-0.824,4.039-5.292v-0.477c0-4.468-2.289-5.292-4.039-5.292h-3.871V86.42H173.423z"/>
			<path fill="#ABABAB" d="M194.262,99.608h0.303c3.063,0,4.241-2.646,4.241-6.897h4.544v0.434c0,7.982-3.03,11.539-9.055,11.539
				c-6.563,0-9.593-4.902-9.593-16.615v-1.735c0-11.713,3.03-16.615,9.593-16.615c6.025,0,9.055,3.557,9.055,11.799v1.475h-4.544
				c0-5.379-1.043-8.199-4.241-8.199h-0.303c-3.736,0-4.948,3.904-4.948,11.539v1.735C189.314,95.704,190.493,99.608,194.262,99.608
				z"/>
			<path fill="#ABABAB" d="M224.763,70.283v33.837h-4.511V89.37h-8.92v14.75h-4.511V70.283h4.511v14.055h8.92V70.283H224.763z"/>
		</g>
	</g>
	<g>
		<path fill="#ABABAB" d="M443.046,239.765c-4.781,0-9.322-1.898-12.785-5.345l-68.353-68.036
			c-12.416,7.449-26.575,11.375-41.107,11.375c-44.133,0-80.037-35.904-80.037-80.037s35.904-80.037,80.037-80.037
			s80.023,35.904,80.023,80.037c0,16.31-4.844,31.903-14.033,45.262l67.559,67.23c6.961,6.929,7.223,17.995,0.582,24.668
			C451.798,238.032,447.577,239.765,443.046,239.765L443.046,239.765z M320.8,50.353c-26.12,0-47.37,21.25-47.37,47.37
			s21.25,47.37,47.37,47.37s47.37-21.25,47.37-47.37S346.92,50.353,320.8,50.353z"/>
		<path fill="#FFFFFF" d="M320.8,20.686c42.546,0,77.023,34.491,77.023,77.037c0,17.065-5.559,32.828-14.944,45.595l69.353,69.024
			c5.799,5.771,6.055,14.917,0.572,20.426c-2.658,2.671-6.176,3.998-9.758,3.998c-3.807,0-7.682-1.498-10.67-4.471l-70.034-69.709
			c-11.99,7.694-26.238,12.175-41.542,12.175c-42.546,0-77.037-34.491-77.037-77.037S278.254,20.686,320.8,20.686 M320.8,148.093
			c27.819,0,50.37-22.551,50.37-50.37s-22.551-50.37-50.37-50.37s-50.37,22.551-50.37,50.37S292.981,148.093,320.8,148.093
			 M320.8,14.686c-45.787,0-83.037,37.25-83.037,83.037s37.25,83.037,83.037,83.037c14.292,0,28.237-3.66,40.624-10.625
			l66.72,66.412c4.029,4.01,9.322,6.218,14.902,6.218c5.336,0,10.313-2.048,14.012-5.766c7.807-7.846,7.541-20.815-0.594-28.911
			l-65.812-65.492c8.633-13.386,13.171-28.794,13.171-44.874C403.823,51.936,366.587,14.686,320.8,14.686L320.8,14.686z
			 M320.8,142.093c-24.466,0-44.37-19.904-44.37-44.37s19.904-44.37,44.37-44.37s44.37,19.904,44.37,44.37
			S345.266,142.093,320.8,142.093L320.8,142.093z"/>
	</g>
</g>
</svg>
